<?xml version="1.0" encoding="UTF-8" standalone="no"?>
<!-- Created with Inkscape (http://www.inkscape.org/) -->

<svg
   width="1080"
   height="1080"
   viewBox="0 0 1080 1080"
   version="1.1"
   id="svg5"
   xml:space="preserve"
   inkscape:version="1.2.1 (1:1.2.1+202210291243+9c6d41e410)"
   sodipodi:docname="url-shortener.svg"
   xmlns:inkscape="http://www.inkscape.org/namespaces/inkscape"
   xmlns:sodipodi="http://sodipodi.sourceforge.net/DTD/sodipodi-0.dtd"
   xmlns:xlink="http://www.w3.org/1999/xlink"
   xmlns="http://www.w3.org/2000/svg"
   xmlns:svg="http://www.w3.org/2000/svg"><sodipodi:namedview
     id="namedview7"
     pagecolor="#ffffff"
     bordercolor="#999999"
     borderopacity="1"
     inkscape:showpageshadow="0"
     inkscape:pageopacity="0"
     inkscape:pagecheckerboard="0"
     inkscape:deskcolor="#d1d1d1"
     inkscape:document-units="px"
     showgrid="false"
     inkscape:zoom="0.21898148"
     inkscape:cx="-376.74419"
     inkscape:cy="552.55814"
     inkscape:window-width="1366"
     inkscape:window-height="704"
     inkscape:window-x="0"
     inkscape:window-y="0"
     inkscape:window-maximized="1"
     inkscape:current-layer="layer1" /><defs
     id="defs2"><linearGradient
       inkscape:collect="always"
       id="linearGradient11912"><stop
         style="stop-color:#000000;stop-opacity:0.90109897;"
         offset="0"
         id="stop11908" /><stop
         style="stop-color:#000000;stop-opacity:0.13186814;"
         offset="1"
         id="stop11910" /></linearGradient><linearGradient
       inkscape:collect="always"
       xlink:href="#linearGradient11912"
       id="linearGradient11914"
       x1="0"
       y1="1076.3979"
       x2="1080"
       y2="0"
       gradientUnits="userSpaceOnUse" /></defs><g
     inkscape:label="Layer 1"
     inkscape:groupmode="layer"
     id="layer1"><rect
       style="fill:#ff3c5b;fill-opacity:1;stroke:#ffffff;stroke-width:0;stroke-opacity:0.915966;paint-order:markers fill stroke;opacity:1"
       id="rect5254"
       width="1080"
       height="1072.7959"
       x="0"
       y="3.6020374"
       ry="254.57887" /><rect
       style="opacity:1;mix-blend-mode:overlay;fill:url(#linearGradient11914);fill-opacity:1;stroke:none;stroke-width:27.645;stroke-dasharray:none;stroke-opacity:0.915966;paint-order:markers fill stroke"
       id="rect10970"
       width="1080"
       height="1072.7959"
       x="0"
       y="3.6020374"
       ry="254.57883" /><g
       style="opacity:1;fill:#ffffff;fill-opacity:1"
       id="g3281"
       transform="matrix(32.782178,0,0,32.782178,213.78954,210.56688)"><path
         d="m 12.232,4.232 a 2.5003296,2.5003296 0 0 1 3.536,3.536 l -1.225,1.224 a 0.75,0.75 0 0 0 1.061,1.06 L 16.828,8.828 A 4,4 0 0 0 11.172,3.172 l -3,3 A 4,4 0 0 0 8.397,12.037 0.75,0.75 0 0 0 9.374,10.899 2.5,2.5 0 0 1 9.232,7.232 Z"
         id="path3269"
         style="fill:#ffffff;fill-opacity:1" /><path
         d="m 11.603,7.963 a 0.75,0.75 0 0 0 -0.977,1.138 2.5,2.5 0 0 1 0.142,3.667 l -3,3 A 2.5003296,2.5003296 0 0 1 4.232,12.232 L 5.457,11.008 A 0.75,0.75 0 0 0 4.396,9.948 l -1.224,1.224 a 4,4 0 1 0 5.656,5.656 l 3,-3 A 4,4 0 0 0 11.603,7.963 Z"
         id="path3271"
         style="fill:#ffffff;fill-opacity:1" /></g></g></svg>
